<?xml version="1.0" standalone="no"?>
<svg viewBox="0 0 200 200" xmlns="http://www.w3.org/2000/svg">
  <path fill="#0284C7" d="M29.5,-41.6C44.4,-36.4,66.8,-38.5,78.2,-30.7C89.6,-22.8,90.1,-4.9,80.9,6.8C71.7,18.5,52.9,24,40.4,30.6C27.8,37.2,21.6,44.8,13,49.9C4.4,55,-6.6,57.5,-17.4,55.9C-28.2,54.3,-38.9,48.6,-48.7,40.4C-58.6,32.3,-67.6,21.6,-65.8,11.6C-63.9,1.5,-51.1,-8,-46.9,-23.2C-42.7,-38.3,-47,-59.1,-40.6,-68.3C-34.2,-77.4,-17.1,-74.8,-4.9,-67.2C7.3,-59.6,14.6,-46.9,29.5,-41.6Z" transform="translate(100 100)" />
</svg>
